# xmcd
#
# Track frame offsets: 
#        150
#        15587
#        88990
#        111790
#        132502
#        151162
#        170420
#        185960
#        196210
#        203037
#        233467
#        259737
#        277912
#        294602
#        310385
#        327140
#
# Disc length: 4661 seconds
#
# Revision: 7
# Processed by: cddbd v1.5.2PL0 Copyright (c) Steve Scherf et al.
# Submitted via: ExactAudioCopy v0.99pb5
#
DISCID=e1123310
DTITLE=Duke Ellington - Ella Fitzgerald Sings The Duke Ellington Song 
DTITLE=Book [CD3]
DYEAR=1957
DGENRE=Jazz
TTITLE0=Chelsea Bridge
TTITLE1=Portrait Of Ella Fitzgerald
TTITLE2=The E And D Blues (E For Ella, D For Duke)
TTITLE3=Chelsea Bridge - Rehearsal: Warmup, Discussion, Breakdown
TTITLE4=Chelsea Bridge - Rehearsal: Reading
TTITLE5=Chelsea Bridge - Rehearsal: Complete Reading
TTITLE6=Chelsea Bridge - Rehearsal: Revision, etc.
TTITLE7=Chelsea Bridge - Rehearsal: Strayhorn reviews voicing
TTITLE8=Chelsea Bridge - Rehearsal: D.E.'s Directions, Breakdown
TTITLE9=Chelsea Bridge - Rehearsal: D.E's Directions, etc.
TTITLE10=Chelsea Bridge - Rehearsal: Instructions, Complete Reading
TTITLE11=All Heart - Alternative Takes: Assembling Intro, Complete Rea
TTITLE11=ding
TTITLE12=All Heart - Alternative Takes 1
TTITLE13=All Heart - Alternative Takes 2
TTITLE14=All Heart - Alternative Takes 3
TTITLE15=All Heart - Alternative Takes 4
EXTD=YEAR: 1957
EXTT0=
EXTT1=
EXTT2=
EXTT3=
EXTT4=
EXTT5=
EXTT6=
EXTT7=
EXTT8=
EXTT9=
EXTT10=
EXTT11=
EXTT12=
EXTT13=
EXTT14=
EXTT15=
PLAYORDER=
